<svg width="60" height="80" viewBox="0 0 60 80" fill="none" xmlns="http://www.w3.org/2000/svg">
<path d="M8.80507 0C18.2145 0 27.6218 0 37.0313 0C37.0355 7.46503 37.0396 14.9321 37.0438 22.3972C37.0438 23.4329 37.0459 23.4371 38.0629 23.4371C45.2028 23.4392 52.3427 23.4392 59.4826 23.4392C59.8494 23.7122 59.7036 24.1082 59.7036 24.452C59.7119 39.3154 59.7098 54.1788 59.7077 69.0442C59.7077 69.4339 59.7098 69.8257 59.6765 70.2154C59.3097 74.494 57.1318 77.4721 53.2409 79.2352C52.4386 79.5978 51.5529 79.6499 50.7526 80C36.7687 80 22.7869 80 8.80298 80C8.66752 79.7353 8.39034 79.8187 8.18193 79.7708C7.06072 79.5082 5.99161 79.1164 5.02045 78.4974C1.63597 76.3342 -0.00208205 73.2269 1.98603e-06 69.2088C0.00833814 49.7377 0.00416777 30.2665 0.00416777 10.7974C0.00416777 10.4598 0.0125049 10.1201 0.0312613 9.78248C0.302186 5.3143 3.3553 1.54427 7.65051 0.360535C8.04022 0.250081 8.47162 0.283429 8.80507 0ZM9.63034 50.4108C9.63034 52.4115 9.63243 54.4143 9.62826 56.4149C9.62826 56.7609 9.57825 57.0881 10.1159 57.0777C11.854 57.0422 13.5984 57.1298 15.3281 57.0068C18.7772 56.763 21.0509 54.3767 21.2489 50.936C21.4593 47.3056 19.5712 44.7443 16.1075 44.0399C14.184 43.6481 12.225 43.9399 10.2868 43.8419C9.70537 43.8127 9.6095 44.0524 9.61575 44.563C9.64493 46.5116 9.63034 48.4602 9.63034 50.4108ZM29.2807 43.7002C25.2919 43.694 22.3805 46.547 22.3847 50.4629C22.3867 54.3747 25.294 57.2152 29.2953 57.2131C33.2383 57.2089 36.0997 54.3663 36.0997 50.4525C36.0976 46.547 33.23 43.7085 29.2807 43.7002ZM44.0107 57.186C44.2963 57.186 44.5839 57.2027 44.8673 57.1839C47.2473 57.0131 49.2 55.5938 49.8565 53.5598C49.9377 53.3097 50.1691 53.0221 49.671 52.9158C48.7582 52.722 47.8475 52.5136 46.9409 52.2948C46.6637 52.2281 46.597 52.3511 46.5095 52.5824C46.0364 53.8391 45.0694 54.3955 43.7752 54.3434C42.431 54.2892 41.4578 53.5931 40.9555 52.349C40.4616 51.1236 40.4554 49.8481 40.9409 48.6144C41.4453 47.3327 42.4248 46.6325 43.8065 46.5741C45.0944 46.5178 46.0427 47.1764 46.5824 48.5331C46.7367 48.9207 46.9242 48.9791 47.2723 48.902C47.9808 48.7436 48.6873 48.5435 49.4063 48.4727C50.0795 48.406 50.0711 48.0621 49.9357 47.5744C49.571 46.2511 48.7853 45.2466 47.6015 44.5818C45.7572 43.5439 43.7815 43.4335 41.7933 44.0107C38.438 44.984 36.7937 47.96 37.3481 51.9051C37.7982 55.0832 40.4741 57.2173 44.0107 57.186Z" fill="#0263D0"/>
<path d="M37.1876 0C39.3654 2.30286 41.5328 4.61406 43.7189 6.9065C48.8519 12.2833 53.9953 17.6518 59.1325 23.0265C59.2575 23.1578 59.3659 23.3016 59.4826 23.4392C52.3427 23.4392 45.2028 23.4392 38.0629 23.4371C37.0458 23.4371 37.0438 23.435 37.0438 22.3972C37.0396 14.9321 37.0354 7.46503 37.0312 0C37.0834 0 37.1355 0 37.1876 0Z" fill="#4E91DE"/>
<path d="M9.63081 50.4106C9.63081 48.462 9.6454 46.5113 9.62039 44.5628C9.61414 44.0501 9.71001 43.8125 10.2915 43.8417C12.2296 43.9417 14.1886 43.6499 16.1122 44.0397C19.5738 44.7441 21.4619 47.3053 21.2535 50.9357C21.0534 54.3765 18.7797 56.7627 15.3327 57.0065C13.603 57.1295 11.8587 57.042 10.1206 57.0774C9.58288 57.0878 9.63081 56.7627 9.6329 56.4147C9.6329 54.414 9.63081 52.4112 9.63081 50.4106ZM12.959 50.4647C12.959 51.2463 12.959 52.0257 12.959 52.8072C12.959 54.3765 12.959 54.3765 14.5533 54.1764C16.8833 53.8847 17.9545 52.5655 17.8544 50.1042C17.7732 48.0618 16.4373 46.8156 14.2345 46.726C14.0531 46.7176 13.8677 46.7406 13.6905 46.7156C13.132 46.6322 12.909 46.8073 12.9424 47.422C12.9986 48.4328 12.959 49.4498 12.959 50.4647Z" fill="#F9FBFD"/>
<path d="M29.28 43.7002C33.2313 43.7065 36.0969 46.5449 36.0969 50.4525C36.0969 54.3684 33.2355 57.211 29.2925 57.2131C25.2932 57.2173 22.3839 54.3767 22.3818 50.4629C22.3798 46.5491 25.2891 43.694 29.28 43.7002ZM25.7642 50.4983C25.7746 52.3302 26.7667 53.8015 28.2713 54.2142C30.2282 54.7519 32.0414 53.6911 32.5853 51.6904C33.1834 49.4917 32.1393 47.2556 30.2616 46.7116C27.8441 46.0114 25.7476 47.7766 25.7642 50.4983Z" fill="#FBFCFD"/>
<path d="M44.0106 57.1859C40.474 57.2192 37.7981 55.0831 37.3501 51.9029C36.7957 47.9578 38.4379 44.9818 41.7953 44.0085C43.7835 43.4333 45.7592 43.5438 47.6035 44.5795C48.7873 45.2443 49.5729 46.2489 49.9376 47.5722C50.071 48.0599 50.0814 48.4017 49.4083 48.4704C48.6893 48.5434 47.9828 48.7435 47.2742 48.8998C46.9262 48.9769 46.7387 48.9206 46.5844 48.5309C46.0447 47.1763 45.0964 46.5156 43.8085 46.5719C42.4268 46.6323 41.4494 47.3326 40.9429 48.6122C40.4574 49.8459 40.4636 51.1193 40.9575 52.3468C41.4598 53.5909 42.433 54.287 43.7772 54.3412C45.0693 54.3933 46.0384 53.8368 46.5115 52.5802C46.599 52.3488 46.6657 52.2259 46.9429 52.2926C47.8494 52.5114 48.7602 52.7198 49.673 52.9136C50.1711 53.0199 49.9377 53.3075 49.8585 53.5576C49.202 55.5916 47.2492 57.0088 44.8693 57.1817C44.5817 57.2026 44.2962 57.1859 44.0106 57.1859Z" fill="#FBFCFD"/>
<path d="M12.9583 50.4647C12.9583 49.4498 12.9978 48.4328 12.9437 47.4221C12.9103 46.8073 13.1333 46.6343 13.6918 46.7156C13.869 46.7427 14.0545 46.7197 14.2358 46.726C16.4386 46.8156 17.7724 48.0618 17.8557 50.1042C17.9537 52.5655 16.8846 53.8847 14.5546 54.1764C12.9603 54.3765 12.9603 54.3765 12.9603 52.8072C12.9583 52.0257 12.9583 51.2442 12.9583 50.4647Z" fill="#0263D0"/>
<path d="M25.7647 50.4981C25.7481 47.7764 27.8446 46.0112 30.2621 46.7114C32.1398 47.2574 33.1839 49.4936 32.5858 51.6902C32.0419 53.6908 30.2267 54.7537 28.2719 54.214C26.7672 53.8013 25.7752 52.3321 25.7647 50.4981Z" fill="#0263D0"/>
</svg>
