<svg width="100" height="79" viewBox="0 0 100 79" fill="none" xmlns="http://www.w3.org/2000/svg">
<path d="M0 73.8126C0 54.9326 0 36.0526 0 17.1699C3.07934 17.1619 6.156 17.1538 9.23534 17.1431C15.806 17.1351 22.3794 17.1191 28.9501 17.1164C38.8088 17.111 48.6648 17.111 58.5235 17.1191C60.6156 17.1217 62.4081 16.5546 63.3793 14.5373C64.2969 12.6378 65.1236 10.6928 65.9877 8.76659C66.4586 7.76868 66.9321 6.7681 67.403 5.77019C68.2992 3.86801 69.8055 2.92093 71.8976 2.92093C79.707 2.91558 87.519 2.90755 95.3284 2.92628C98.1429 2.93163 99.9942 4.78298 99.9942 7.5814C100.002 29.1903 99.9996 50.7965 99.9996 72.4054C99.9996 73.3979 99.8257 74.3557 99.3602 75.2332C98.1322 77.5501 96.131 78.4864 93.5787 78.4864C64.519 78.4811 35.4592 78.4838 6.39946 78.4811C6.20416 78.4811 6.00886 78.4865 5.81356 78.4757C3.692 78.3554 1.99046 77.4752 0.866814 75.6399C0.516342 75.0727 0.286263 74.4253 0 73.8126Z" fill="#FBD362"/>
<path d="M0 13.0715C0.489591 11.5893 0.444111 10.0162 0.762479 8.50198C1.13168 6.7523 1.55438 5.02134 2.0734 3.31179C2.71549 1.2036 4.28058 0.0130711 6.4824 0.0103957C14.2811 -0.00565646 22.0824 -0.000308353 29.8811 0.00771772C31.5853 0.0103931 32.9363 0.684585 33.9476 2.09985C35.5528 4.34448 37.2116 6.54897 38.8489 8.76952C29.4263 8.77219 20.0063 8.77487 10.5837 8.77754C10.2921 8.77754 9.99782 8.78557 9.7062 8.78022C9.36643 8.77487 9.13368 8.88188 9.13903 9.26981C9.17916 11.897 9.00526 14.5269 9.23534 17.1514C6.156 17.1594 3.07934 17.1675 0 17.1782C0 15.8057 0 14.4386 0 13.0715Z" fill="#F5C358"/>
<path d="M9.23518 17.1461C9.0051 14.5215 9.179 11.8917 9.13887 9.26445C9.13352 8.87652 9.36628 8.7695 9.70605 8.77486C9.99766 8.78021 10.292 8.77219 10.5836 8.77219C20.0062 8.76951 29.4261 8.76684 38.8487 8.76416C47.8941 8.76684 56.9422 8.76683 65.9876 8.76951C65.1208 10.6958 64.2968 12.6408 63.3791 14.5403C62.4053 16.5575 60.6155 17.122 58.5233 17.122C48.6646 17.1113 38.8086 17.1139 28.9499 17.1193C22.3792 17.122 15.8059 17.138 9.23518 17.1461Z" fill="#EAEFF1"/>
</svg>
